<mxfile host="app.diagrams.net" agent="Mozilla/5.0 (Windows NT 10.0; Win64; x64; rv:134.0) Gecko/20100101 Firefox/134.0" version="26.0.6">
  <diagram name="Page-1" id="e7e014a7-5840-1c2e-5031-d8a46d1fe8dd">
    <mxGraphModel dx="1434" dy="746" grid="1" gridSize="10" guides="1" tooltips="1" connect="1" arrows="1" fold="1" page="1" pageScale="1" pageWidth="1169" pageHeight="826" background="none" math="0" shadow="0">
      <root>
        <mxCell id="0" />
        <mxCell id="1" parent="0" />
        <mxCell id="3" value="pickUpPrincess" style="swimlane;whiteSpace=wrap" parent="1" vertex="1">
          <mxGeometry x="760" y="120" width="1390" height="1050" as="geometry" />
        </mxCell>
        <mxCell id="15" value="move from SP to GB_a" style="fontSize=10;verticalAlign=middle;horizontal=1;rounded=1;" parent="3" vertex="1">
          <mxGeometry x="365" y="207" width="110" height="50" as="geometry" />
        </mxCell>
        <mxCell id="22" value="" style="edgeStyle=elbowEdgeStyle;elbow=horizontal;align=left;verticalAlign=bottom;endArrow=open;endSize=8;exitX=0.5;exitY=1;endFill=1;rounded=0;entryX=0.5;entryY=0;entryDx=0;entryDy=0;exitDx=0;exitDy=0;" parent="3" source="_Sj6H3lR2v7R7_RWuAPX-46" target="15" edge="1">
          <mxGeometry x="-1" relative="1" as="geometry">
            <mxPoint x="420" y="215" as="targetPoint" />
            <Array as="points">
              <mxPoint x="420" y="177" />
            </Array>
            <mxPoint x="300" y="220" as="sourcePoint" />
          </mxGeometry>
        </mxCell>
        <mxCell id="_Sj6H3lR2v7R7_RWuAPX-50" value="false" style="edgeLabel;html=1;align=center;verticalAlign=middle;resizable=0;points=[];" parent="22" vertex="1" connectable="0">
          <mxGeometry x="0.2669" relative="1" as="geometry">
            <mxPoint y="-14" as="offset" />
          </mxGeometry>
        </mxCell>
        <mxCell id="_Sj6H3lR2v7R7_RWuAPX-46" value="enemy in base" style="rhombus;fontSize=9;" parent="3" vertex="1">
          <mxGeometry x="380" y="111" width="80" height="40" as="geometry" />
        </mxCell>
        <mxCell id="_Sj6H3lR2v7R7_RWuAPX-51" value="" style="edgeStyle=elbowEdgeStyle;elbow=horizontal;align=left;verticalAlign=bottom;endArrow=open;endSize=8;exitX=0;exitY=0.5;endFill=1;rounded=0;exitDx=0;exitDy=0;entryX=1;entryY=0.5;entryDx=0;entryDy=0;" parent="3" source="_Sj6H3lR2v7R7_RWuAPX-46" target="_Sj6H3lR2v7R7_RWuAPX-160" edge="1">
          <mxGeometry x="-1" relative="1" as="geometry">
            <mxPoint x="229.34000000000015" y="131.21000000000004" as="targetPoint" />
            <Array as="points">
              <mxPoint x="330" y="130" />
            </Array>
            <mxPoint x="70" y="99" as="sourcePoint" />
          </mxGeometry>
        </mxCell>
        <mxCell id="_Sj6H3lR2v7R7_RWuAPX-52" value="&lt;div&gt;true&lt;/div&gt;" style="edgeLabel;html=1;align=center;verticalAlign=middle;resizable=0;points=[];" parent="_Sj6H3lR2v7R7_RWuAPX-51" vertex="1" connectable="0">
          <mxGeometry x="0.2669" relative="1" as="geometry">
            <mxPoint x="3" as="offset" />
          </mxGeometry>
        </mxCell>
        <mxCell id="_Sj6H3lR2v7R7_RWuAPX-54" value="step towards C_bridge" style="rounded=1;fontSize=11;" parent="3" vertex="1">
          <mxGeometry x="260" y="427" width="110" height="50" as="geometry" />
        </mxCell>
        <mxCell id="_Sj6H3lR2v7R7_RWuAPX-55" value="princess rescued" style="rhombus;fontSize=9;" parent="3" vertex="1">
          <mxGeometry x="380" y="282" width="80" height="40" as="geometry" />
        </mxCell>
        <mxCell id="_Sj6H3lR2v7R7_RWuAPX-56" value="bridge or land?" style="rhombus;fontSize=9;" parent="3" vertex="1">
          <mxGeometry x="380" y="362" width="80" height="40" as="geometry" />
        </mxCell>
        <mxCell id="_Sj6H3lR2v7R7_RWuAPX-65" value="" style="edgeStyle=elbowEdgeStyle;elbow=horizontal;align=left;verticalAlign=bottom;endArrow=open;endSize=8;exitX=0.5;exitY=1;endFill=1;rounded=0;exitDx=0;exitDy=0;" parent="3" source="_Sj6H3lR2v7R7_RWuAPX-55" edge="1">
          <mxGeometry x="-1" relative="1" as="geometry">
            <mxPoint x="420" y="362" as="targetPoint" />
            <Array as="points">
              <mxPoint x="419.56999999999994" y="354" />
            </Array>
            <mxPoint x="419.56999999999994" y="327" as="sourcePoint" />
          </mxGeometry>
        </mxCell>
        <mxCell id="_Sj6H3lR2v7R7_RWuAPX-66" value="false" style="edgeLabel;html=1;align=center;verticalAlign=middle;resizable=0;points=[];" parent="_Sj6H3lR2v7R7_RWuAPX-65" vertex="1" connectable="0">
          <mxGeometry x="0.2669" relative="1" as="geometry">
            <mxPoint y="-14" as="offset" />
          </mxGeometry>
        </mxCell>
        <mxCell id="_Sj6H3lR2v7R7_RWuAPX-70" value="" style="ellipse;shape=startState;fillColor=#000000;strokeColor=#000000;" parent="3" vertex="1">
          <mxGeometry x="405" y="40" width="30" height="30" as="geometry" />
        </mxCell>
        <mxCell id="_Sj6H3lR2v7R7_RWuAPX-71" value="" style="edgeStyle=elbowEdgeStyle;elbow=horizontal;verticalAlign=bottom;endArrow=open;endSize=8;endFill=1;rounded=0" parent="3" source="_Sj6H3lR2v7R7_RWuAPX-70" edge="1">
          <mxGeometry x="-70" y="-108" as="geometry">
            <mxPoint x="420" y="110" as="targetPoint" />
          </mxGeometry>
        </mxCell>
        <mxCell id="_Sj6H3lR2v7R7_RWuAPX-73" value="" style="edgeStyle=elbowEdgeStyle;elbow=horizontal;entryX=0.503;entryY=0.03;endArrow=open;endFill=1;rounded=0;entryDx=0;entryDy=0;entryPerimeter=0;" parent="3" target="_Sj6H3lR2v7R7_RWuAPX-55" edge="1">
          <mxGeometry width="100" height="100" relative="1" as="geometry">
            <mxPoint x="420" y="257" as="sourcePoint" />
            <mxPoint x="470" y="301" as="targetPoint" />
            <Array as="points">
              <mxPoint x="420" y="283" />
            </Array>
          </mxGeometry>
        </mxCell>
        <mxCell id="_Sj6H3lR2v7R7_RWuAPX-74" value="step towards C_land" style="rounded=1;fontSize=11;" parent="3" vertex="1">
          <mxGeometry x="475" y="427" width="110" height="50" as="geometry" />
        </mxCell>
        <mxCell id="_Sj6H3lR2v7R7_RWuAPX-75" value="" style="edgeStyle=elbowEdgeStyle;elbow=horizontal;align=left;verticalAlign=bottom;endArrow=open;endSize=8;endFill=1;rounded=0;entryX=0.5;entryY=0;entryDx=0;entryDy=0;exitX=1;exitY=0.5;exitDx=0;exitDy=0;" parent="3" source="_Sj6H3lR2v7R7_RWuAPX-56" target="_Sj6H3lR2v7R7_RWuAPX-74" edge="1">
          <mxGeometry x="-1" relative="1" as="geometry">
            <mxPoint x="565" y="381.5" as="targetPoint" />
            <Array as="points">
              <mxPoint x="530" y="400" />
            </Array>
            <mxPoint x="475" y="381.5" as="sourcePoint" />
          </mxGeometry>
        </mxCell>
        <mxCell id="_Sj6H3lR2v7R7_RWuAPX-76" value="land" style="edgeLabel;html=1;align=center;verticalAlign=middle;resizable=0;points=[];" parent="_Sj6H3lR2v7R7_RWuAPX-75" vertex="1" connectable="0">
          <mxGeometry x="0.2669" relative="1" as="geometry">
            <mxPoint x="-17" y="-4" as="offset" />
          </mxGeometry>
        </mxCell>
        <mxCell id="_Sj6H3lR2v7R7_RWuAPX-77" value="" style="edgeStyle=elbowEdgeStyle;elbow=horizontal;align=left;verticalAlign=bottom;endArrow=open;endSize=8;endFill=1;rounded=0;entryX=0.5;entryY=0;entryDx=0;entryDy=0;exitX=0;exitY=0.5;exitDx=0;exitDy=0;" parent="3" source="_Sj6H3lR2v7R7_RWuAPX-56" target="_Sj6H3lR2v7R7_RWuAPX-54" edge="1">
          <mxGeometry x="-1" relative="1" as="geometry">
            <mxPoint x="555" y="437" as="targetPoint" />
            <Array as="points">
              <mxPoint x="315" y="410" />
            </Array>
            <mxPoint x="470" y="392" as="sourcePoint" />
          </mxGeometry>
        </mxCell>
        <mxCell id="_Sj6H3lR2v7R7_RWuAPX-78" value="bridge" style="edgeLabel;html=1;align=center;verticalAlign=middle;resizable=0;points=[];" parent="_Sj6H3lR2v7R7_RWuAPX-77" vertex="1" connectable="0">
          <mxGeometry x="0.2669" relative="1" as="geometry">
            <mxPoint x="18" y="-4" as="offset" />
          </mxGeometry>
        </mxCell>
        <mxCell id="_Sj6H3lR2v7R7_RWuAPX-83" value="fall from bridge" style="rhombus;fontSize=9;" parent="3" vertex="1">
          <mxGeometry x="275" y="590" width="80" height="40" as="geometry" />
        </mxCell>
        <mxCell id="_Sj6H3lR2v7R7_RWuAPX-85" value="" style="edgeStyle=elbowEdgeStyle;elbow=horizontal;align=left;verticalAlign=bottom;endArrow=open;endSize=8;endFill=1;rounded=0;exitX=0;exitY=0.5;exitDx=0;exitDy=0;" parent="3" source="_Sj6H3lR2v7R7_RWuAPX-83" target="_Sj6H3lR2v7R7_RWuAPX-70" edge="1">
          <mxGeometry x="-1" relative="1" as="geometry">
            <mxPoint x="320" y="500" as="targetPoint" />
            <Array as="points">
              <mxPoint x="40" y="330" />
            </Array>
            <mxPoint x="230" y="500" as="sourcePoint" />
          </mxGeometry>
        </mxCell>
        <mxCell id="_Sj6H3lR2v7R7_RWuAPX-86" value="&lt;div&gt;true&lt;/div&gt;" style="edgeLabel;html=1;align=center;verticalAlign=middle;resizable=0;points=[];" parent="_Sj6H3lR2v7R7_RWuAPX-85" vertex="1" connectable="0">
          <mxGeometry x="0.2669" relative="1" as="geometry">
            <mxPoint x="-17" as="offset" />
          </mxGeometry>
        </mxCell>
        <mxCell id="_Sj6H3lR2v7R7_RWuAPX-91" value="" style="edgeStyle=elbowEdgeStyle;elbow=horizontal;align=left;verticalAlign=bottom;endArrow=open;endSize=8;endFill=1;rounded=0;exitX=0.5;exitY=1;exitDx=0;exitDy=0;entryX=0.5;entryY=0;entryDx=0;entryDy=0;" parent="3" source="_Sj6H3lR2v7R7_RWuAPX-83" target="_Sj6H3lR2v7R7_RWuAPX-141" edge="1">
          <mxGeometry x="-1" relative="1" as="geometry">
            <mxPoint x="345" y="700" as="targetPoint" />
            <Array as="points" />
            <mxPoint x="315" y="530" as="sourcePoint" />
          </mxGeometry>
        </mxCell>
        <mxCell id="_Sj6H3lR2v7R7_RWuAPX-92" value="&lt;div&gt;false&lt;/div&gt;" style="edgeLabel;html=1;align=center;verticalAlign=middle;resizable=0;points=[];" parent="_Sj6H3lR2v7R7_RWuAPX-91" vertex="1" connectable="0">
          <mxGeometry x="0.2669" relative="1" as="geometry">
            <mxPoint x="-17" as="offset" />
          </mxGeometry>
        </mxCell>
        <mxCell id="_Sj6H3lR2v7R7_RWuAPX-104" value="" style="edgeStyle=elbowEdgeStyle;elbow=horizontal;verticalAlign=bottom;endArrow=open;endSize=8;endFill=1;rounded=0;entryX=0.5;entryY=0;entryDx=0;entryDy=0;exitX=0.5;exitY=1;exitDx=0;exitDy=0;" parent="3" source="_Sj6H3lR2v7R7_RWuAPX-54" target="_Sj6H3lR2v7R7_RWuAPX-103" edge="1">
          <mxGeometry x="-180" y="-236" as="geometry">
            <mxPoint x="455" y="728" as="targetPoint" />
            <mxPoint x="455" y="605" as="sourcePoint" />
          </mxGeometry>
        </mxCell>
        <mxCell id="_Sj6H3lR2v7R7_RWuAPX-105" value="enemy in &#xa;ally side" style="rhombus;fontSize=9;" parent="3" vertex="1">
          <mxGeometry x="490" y="508" width="80" height="40" as="geometry" />
        </mxCell>
        <mxCell id="_Sj6H3lR2v7R7_RWuAPX-108" value="" style="edgeStyle=elbowEdgeStyle;elbow=horizontal;verticalAlign=bottom;endArrow=open;endSize=8;endFill=1;rounded=0;entryX=0.5;entryY=0;entryDx=0;entryDy=0;exitX=0.5;exitY=1;exitDx=0;exitDy=0;" parent="3" source="_Sj6H3lR2v7R7_RWuAPX-74" target="_Sj6H3lR2v7R7_RWuAPX-105" edge="1">
          <mxGeometry x="-290" y="-364" as="geometry">
            <mxPoint x="514.76" y="508" as="targetPoint" />
            <mxPoint x="514.76" y="477" as="sourcePoint" />
          </mxGeometry>
        </mxCell>
        <mxCell id="_Sj6H3lR2v7R7_RWuAPX-109" value="" style="edgeStyle=elbowEdgeStyle;elbow=horizontal;align=left;verticalAlign=bottom;endArrow=open;endSize=8;endFill=1;rounded=0;exitX=0.5;exitY=1;exitDx=0;exitDy=0;entryX=0.5;entryY=0;entryDx=0;entryDy=0;" parent="3" source="_Sj6H3lR2v7R7_RWuAPX-103" target="_Sj6H3lR2v7R7_RWuAPX-83" edge="1">
          <mxGeometry x="-1" relative="1" as="geometry">
            <mxPoint x="344.58000000000004" y="608" as="targetPoint" />
            <Array as="points" />
            <mxPoint x="344.58000000000004" y="548" as="sourcePoint" />
          </mxGeometry>
        </mxCell>
        <mxCell id="_Sj6H3lR2v7R7_RWuAPX-110" value="&lt;div&gt;false&lt;/div&gt;" style="edgeLabel;html=1;align=center;verticalAlign=middle;resizable=0;points=[];" parent="_Sj6H3lR2v7R7_RWuAPX-109" vertex="1" connectable="0">
          <mxGeometry x="0.2669" relative="1" as="geometry">
            <mxPoint x="-17" as="offset" />
          </mxGeometry>
        </mxCell>
        <mxCell id="_Sj6H3lR2v7R7_RWuAPX-103" value="enemy in &#xa;ally side" style="rhombus;fontSize=9;" parent="3" vertex="1">
          <mxGeometry x="275" y="508" width="80" height="40" as="geometry" />
        </mxCell>
        <mxCell id="_Sj6H3lR2v7R7_RWuAPX-120" value="" style="edgeStyle=elbowEdgeStyle;elbow=horizontal;align=left;verticalAlign=bottom;endArrow=open;endSize=8;endFill=1;rounded=0;exitX=0.5;exitY=1;exitDx=0;exitDy=0;entryX=0.5;entryY=0;entryDx=0;entryDy=0;" parent="3" source="_Sj6H3lR2v7R7_RWuAPX-105" target="_Sj6H3lR2v7R7_RWuAPX-145" edge="1">
          <mxGeometry x="-1" relative="1" as="geometry">
            <mxPoint x="500" y="650" as="targetPoint" />
            <Array as="points" />
            <mxPoint x="500" y="590" as="sourcePoint" />
          </mxGeometry>
        </mxCell>
        <mxCell id="_Sj6H3lR2v7R7_RWuAPX-121" value="&lt;div&gt;false&lt;/div&gt;" style="edgeLabel;html=1;align=center;verticalAlign=middle;resizable=0;points=[];" parent="_Sj6H3lR2v7R7_RWuAPX-120" vertex="1" connectable="0">
          <mxGeometry x="0.2669" relative="1" as="geometry">
            <mxPoint x="-17" as="offset" />
          </mxGeometry>
        </mxCell>
        <mxCell id="_Sj6H3lR2v7R7_RWuAPX-128" value="C_bridge &#xa;reached" style="rhombus;fontSize=9;" parent="3" vertex="1">
          <mxGeometry x="275" y="830" width="80" height="40" as="geometry" />
        </mxCell>
        <mxCell id="_Sj6H3lR2v7R7_RWuAPX-132" value="" style="edgeStyle=elbowEdgeStyle;elbow=horizontal;align=left;verticalAlign=bottom;endArrow=open;endSize=8;endFill=1;rounded=0;exitX=0.5;exitY=1;exitDx=0;exitDy=0;entryX=0.5;entryY=0;entryDx=0;entryDy=0;" parent="3" source="_Sj6H3lR2v7R7_RWuAPX-128" target="_Sj6H3lR2v7R7_RWuAPX-190" edge="1">
          <mxGeometry x="-1" relative="1" as="geometry">
            <mxPoint x="425" y="950" as="targetPoint" />
            <Array as="points">
              <mxPoint x="425" y="910" />
            </Array>
            <mxPoint x="344.57000000000005" y="1010" as="sourcePoint" />
          </mxGeometry>
        </mxCell>
        <mxCell id="_Sj6H3lR2v7R7_RWuAPX-133" value="true" style="edgeLabel;html=1;align=center;verticalAlign=middle;resizable=0;points=[];" parent="_Sj6H3lR2v7R7_RWuAPX-132" vertex="1" connectable="0">
          <mxGeometry x="0.2669" relative="1" as="geometry">
            <mxPoint x="-17" as="offset" />
          </mxGeometry>
        </mxCell>
        <mxCell id="_Sj6H3lR2v7R7_RWuAPX-134" value="" style="edgeStyle=elbowEdgeStyle;elbow=horizontal;align=left;verticalAlign=bottom;endArrow=open;endSize=8;endFill=1;rounded=0;exitX=1;exitY=0.5;exitDx=0;exitDy=0;entryX=1;entryY=0.5;entryDx=0;entryDy=0;" parent="3" edge="1">
          <mxGeometry x="-1" relative="1" as="geometry">
            <mxPoint x="368" y="452" as="targetPoint" />
            <Array as="points">
              <mxPoint x="388" y="650" />
            </Array>
            <mxPoint x="353" y="850" as="sourcePoint" />
          </mxGeometry>
        </mxCell>
        <mxCell id="_Sj6H3lR2v7R7_RWuAPX-135" value="&lt;div&gt;false&lt;/div&gt;" style="edgeLabel;html=1;align=center;verticalAlign=middle;resizable=0;points=[];" parent="_Sj6H3lR2v7R7_RWuAPX-134" vertex="1" connectable="0">
          <mxGeometry x="0.2669" relative="1" as="geometry">
            <mxPoint x="-17" as="offset" />
          </mxGeometry>
        </mxCell>
        <mxCell id="_Sj6H3lR2v7R7_RWuAPX-136" value="C_land&#xa;reached" style="rhombus;fontSize=9;" parent="3" vertex="1">
          <mxGeometry x="490" y="830" width="80" height="40" as="geometry" />
        </mxCell>
        <mxCell id="_Sj6H3lR2v7R7_RWuAPX-137" value="" style="edgeStyle=elbowEdgeStyle;elbow=horizontal;align=left;verticalAlign=bottom;endArrow=open;endSize=8;endFill=1;rounded=0;exitX=1;exitY=0.5;exitDx=0;exitDy=0;entryX=1;entryY=0.5;entryDx=0;entryDy=0;" parent="3" source="_Sj6H3lR2v7R7_RWuAPX-136" target="_Sj6H3lR2v7R7_RWuAPX-74" edge="1">
          <mxGeometry x="-1" relative="1" as="geometry">
            <mxPoint x="605" y="450" as="targetPoint" />
            <Array as="points">
              <mxPoint x="600" y="590" />
            </Array>
            <mxPoint x="590" y="718" as="sourcePoint" />
          </mxGeometry>
        </mxCell>
        <mxCell id="_Sj6H3lR2v7R7_RWuAPX-138" value="&lt;div&gt;false&lt;/div&gt;" style="edgeLabel;html=1;align=center;verticalAlign=middle;resizable=0;points=[];" parent="_Sj6H3lR2v7R7_RWuAPX-137" vertex="1" connectable="0">
          <mxGeometry x="0.2669" relative="1" as="geometry">
            <mxPoint x="-17" as="offset" />
          </mxGeometry>
        </mxCell>
        <mxCell id="_Sj6H3lR2v7R7_RWuAPX-139" value="" style="edgeStyle=elbowEdgeStyle;elbow=horizontal;align=left;verticalAlign=bottom;endArrow=open;endSize=8;endFill=1;rounded=0;exitX=0.5;exitY=1;exitDx=0;exitDy=0;entryX=0.5;entryY=0;entryDx=0;entryDy=0;" parent="3" source="_Sj6H3lR2v7R7_RWuAPX-136" target="_Sj6H3lR2v7R7_RWuAPX-190" edge="1">
          <mxGeometry x="-1" relative="1" as="geometry">
            <mxPoint x="425" y="950" as="targetPoint" />
            <Array as="points">
              <mxPoint x="425" y="910" />
            </Array>
            <mxPoint x="500.33000000000004" y="1030" as="sourcePoint" />
          </mxGeometry>
        </mxCell>
        <mxCell id="_Sj6H3lR2v7R7_RWuAPX-140" value="true" style="edgeLabel;html=1;align=center;verticalAlign=middle;resizable=0;points=[];" parent="_Sj6H3lR2v7R7_RWuAPX-139" vertex="1" connectable="0">
          <mxGeometry x="0.2669" relative="1" as="geometry">
            <mxPoint x="-17" as="offset" />
          </mxGeometry>
        </mxCell>
        <mxCell id="_Sj6H3lR2v7R7_RWuAPX-141" value="princess &#xa;rescued" style="rhombus;fontSize=9;" parent="3" vertex="1">
          <mxGeometry x="275" y="704" width="80" height="40" as="geometry" />
        </mxCell>
        <mxCell id="_Sj6H3lR2v7R7_RWuAPX-145" value="princess &#xa;rescued" style="rhombus;fontSize=9;" parent="3" vertex="1">
          <mxGeometry x="490" y="704" width="80" height="40" as="geometry" />
        </mxCell>
        <mxCell id="_Sj6H3lR2v7R7_RWuAPX-151" value="" style="edgeStyle=elbowEdgeStyle;elbow=horizontal;align=left;verticalAlign=bottom;endArrow=open;endSize=8;endFill=1;rounded=0;exitX=0.5;exitY=1;exitDx=0;exitDy=0;entryX=0.5;entryY=0;entryDx=0;entryDy=0;" parent="3" source="_Sj6H3lR2v7R7_RWuAPX-141" target="_Sj6H3lR2v7R7_RWuAPX-128" edge="1">
          <mxGeometry x="-1" relative="1" as="geometry">
            <mxPoint x="344.75" y="830" as="targetPoint" />
            <Array as="points" />
            <mxPoint x="344.75" y="744" as="sourcePoint" />
          </mxGeometry>
        </mxCell>
        <mxCell id="_Sj6H3lR2v7R7_RWuAPX-152" value="false" style="edgeLabel;html=1;align=center;verticalAlign=middle;resizable=0;points=[];" parent="_Sj6H3lR2v7R7_RWuAPX-151" vertex="1" connectable="0">
          <mxGeometry x="0.2669" relative="1" as="geometry">
            <mxPoint x="-17" as="offset" />
          </mxGeometry>
        </mxCell>
        <mxCell id="_Sj6H3lR2v7R7_RWuAPX-153" value="" style="edgeStyle=elbowEdgeStyle;elbow=horizontal;align=left;verticalAlign=bottom;endArrow=open;endSize=8;endFill=1;rounded=0;exitX=0.5;exitY=1;exitDx=0;exitDy=0;entryX=0.5;entryY=0;entryDx=0;entryDy=0;" parent="3" source="_Sj6H3lR2v7R7_RWuAPX-145" target="_Sj6H3lR2v7R7_RWuAPX-136" edge="1">
          <mxGeometry x="-1" relative="1" as="geometry">
            <mxPoint x="515" y="840" as="targetPoint" />
            <Array as="points" />
            <mxPoint x="480.31999999999994" y="870" as="sourcePoint" />
          </mxGeometry>
        </mxCell>
        <mxCell id="_Sj6H3lR2v7R7_RWuAPX-154" value="false" style="edgeLabel;html=1;align=center;verticalAlign=middle;resizable=0;points=[];" parent="_Sj6H3lR2v7R7_RWuAPX-153" vertex="1" connectable="0">
          <mxGeometry x="0.2669" relative="1" as="geometry">
            <mxPoint x="-17" as="offset" />
          </mxGeometry>
        </mxCell>
        <mxCell id="_Sj6H3lR2v7R7_RWuAPX-160" value="&lt;div align=&quot;center&quot;&gt;&lt;font style=&quot;font-size: 6px;&quot;&gt;&lt;b&gt;&lt;font style=&quot;line-height: 100%;&quot;&gt;attackEnemy&lt;/font&gt;&lt;/b&gt;&lt;/font&gt;&lt;/div&gt;" style="rounded=0;whiteSpace=wrap;html=1;align=center;" parent="3" vertex="1">
          <mxGeometry x="270" y="121" width="50" height="20" as="geometry" />
        </mxCell>
        <mxCell id="_Sj6H3lR2v7R7_RWuAPX-163" value="&lt;font style=&quot;font-size: 6px;&quot;&gt;&lt;b&gt;protectPrincess&lt;/b&gt;&lt;/font&gt;" style="rounded=0;whiteSpace=wrap;html=1;align=center;" parent="3" vertex="1">
          <mxGeometry x="270" y="292" width="50" height="20" as="geometry" />
        </mxCell>
        <mxCell id="_Sj6H3lR2v7R7_RWuAPX-161" value="" style="edgeStyle=elbowEdgeStyle;elbow=horizontal;align=left;verticalAlign=bottom;endArrow=open;endSize=8;endFill=1;rounded=0;entryX=1;entryY=0.5;entryDx=0;entryDy=0;exitX=0;exitY=0.5;exitDx=0;exitDy=0;" parent="3" source="_Sj6H3lR2v7R7_RWuAPX-55" target="_Sj6H3lR2v7R7_RWuAPX-163" edge="1">
          <mxGeometry x="-1" relative="1" as="geometry">
            <mxPoint x="239.34000000000015" y="141.21000000000004" as="targetPoint" />
            <Array as="points">
              <mxPoint x="360" y="290" />
            </Array>
            <mxPoint x="380" y="300" as="sourcePoint" />
          </mxGeometry>
        </mxCell>
        <mxCell id="_Sj6H3lR2v7R7_RWuAPX-162" value="&lt;div&gt;true&lt;/div&gt;" style="edgeLabel;html=1;align=center;verticalAlign=middle;resizable=0;points=[];" parent="_Sj6H3lR2v7R7_RWuAPX-161" vertex="1" connectable="0">
          <mxGeometry x="0.2669" relative="1" as="geometry">
            <mxPoint x="3" as="offset" />
          </mxGeometry>
        </mxCell>
        <mxCell id="_Sj6H3lR2v7R7_RWuAPX-168" value="" style="edgeStyle=elbowEdgeStyle;elbow=horizontal;align=left;verticalAlign=bottom;endArrow=open;endSize=8;endFill=1;rounded=0;exitX=0;exitY=0.5;exitDx=0;exitDy=0;entryX=1;entryY=0.5;entryDx=0;entryDy=0;" parent="3" source="_Sj6H3lR2v7R7_RWuAPX-141" target="_Sj6H3lR2v7R7_RWuAPX-170" edge="1">
          <mxGeometry x="-1" relative="1" as="geometry">
            <mxPoint x="261" y="724" as="targetPoint" />
            <Array as="points" />
            <mxPoint x="306" y="724" as="sourcePoint" />
          </mxGeometry>
        </mxCell>
        <mxCell id="_Sj6H3lR2v7R7_RWuAPX-169" value="true" style="edgeLabel;html=1;align=center;verticalAlign=middle;resizable=0;points=[];" parent="_Sj6H3lR2v7R7_RWuAPX-168" vertex="1" connectable="0">
          <mxGeometry x="0.2669" relative="1" as="geometry">
            <mxPoint x="9" as="offset" />
          </mxGeometry>
        </mxCell>
        <mxCell id="_Sj6H3lR2v7R7_RWuAPX-170" value="&lt;font style=&quot;font-size: 6px;&quot;&gt;&lt;b&gt;protectPrincess&lt;/b&gt;&lt;/font&gt;" style="rounded=0;whiteSpace=wrap;html=1;align=center;" parent="3" vertex="1">
          <mxGeometry x="181" y="714" width="50" height="20" as="geometry" />
        </mxCell>
        <mxCell id="_Sj6H3lR2v7R7_RWuAPX-173" value="" style="edgeStyle=elbowEdgeStyle;elbow=horizontal;align=left;verticalAlign=bottom;endArrow=open;endSize=8;endFill=1;rounded=0;exitX=0;exitY=0.5;exitDx=0;exitDy=0;entryX=1;entryY=0.5;entryDx=0;entryDy=0;" parent="3" source="_Sj6H3lR2v7R7_RWuAPX-103" target="_Sj6H3lR2v7R7_RWuAPX-175" edge="1">
          <mxGeometry x="-1" relative="1" as="geometry">
            <mxPoint x="261" y="528" as="targetPoint" />
            <Array as="points" />
            <mxPoint x="306" y="528" as="sourcePoint" />
          </mxGeometry>
        </mxCell>
        <mxCell id="_Sj6H3lR2v7R7_RWuAPX-174" value="true" style="edgeLabel;html=1;align=center;verticalAlign=middle;resizable=0;points=[];" parent="_Sj6H3lR2v7R7_RWuAPX-173" vertex="1" connectable="0">
          <mxGeometry x="0.2669" relative="1" as="geometry">
            <mxPoint x="9" as="offset" />
          </mxGeometry>
        </mxCell>
        <mxCell id="_Sj6H3lR2v7R7_RWuAPX-175" value="&lt;font style=&quot;font-size: 6px;&quot;&gt;&lt;b&gt;attackEnemy&lt;/b&gt;&lt;/font&gt;" style="rounded=0;whiteSpace=wrap;html=1;align=center;" parent="3" vertex="1">
          <mxGeometry x="181" y="518" width="50" height="20" as="geometry" />
        </mxCell>
        <mxCell id="_Sj6H3lR2v7R7_RWuAPX-176" value="" style="edgeStyle=elbowEdgeStyle;elbow=horizontal;align=left;verticalAlign=bottom;endArrow=open;endSize=8;endFill=1;rounded=0;exitX=0;exitY=0.5;exitDx=0;exitDy=0;entryX=1;entryY=0.5;entryDx=0;entryDy=0;" parent="3" source="_Sj6H3lR2v7R7_RWuAPX-145" target="_Sj6H3lR2v7R7_RWuAPX-178" edge="1">
          <mxGeometry x="-1" relative="1" as="geometry">
            <mxPoint x="480" y="724" as="targetPoint" />
            <Array as="points" />
            <mxPoint x="525" y="724" as="sourcePoint" />
          </mxGeometry>
        </mxCell>
        <mxCell id="_Sj6H3lR2v7R7_RWuAPX-177" value="true" style="edgeLabel;html=1;align=center;verticalAlign=middle;resizable=0;points=[];" parent="_Sj6H3lR2v7R7_RWuAPX-176" vertex="1" connectable="0">
          <mxGeometry x="0.2669" relative="1" as="geometry">
            <mxPoint x="10" as="offset" />
          </mxGeometry>
        </mxCell>
        <mxCell id="_Sj6H3lR2v7R7_RWuAPX-178" value="&lt;font style=&quot;font-size: 6px;&quot;&gt;&lt;b&gt;protectPrincess&lt;/b&gt;&lt;/font&gt;" style="rounded=0;whiteSpace=wrap;html=1;align=center;" parent="3" vertex="1">
          <mxGeometry x="400" y="714" width="50" height="20" as="geometry" />
        </mxCell>
        <mxCell id="_Sj6H3lR2v7R7_RWuAPX-179" value="" style="edgeStyle=elbowEdgeStyle;elbow=horizontal;align=left;verticalAlign=bottom;endArrow=open;endSize=8;endFill=1;rounded=0;exitX=0;exitY=0.5;exitDx=0;exitDy=0;entryX=1;entryY=0.5;entryDx=0;entryDy=0;" parent="3" source="_Sj6H3lR2v7R7_RWuAPX-105" target="_Sj6H3lR2v7R7_RWuAPX-181" edge="1">
          <mxGeometry x="-1" relative="1" as="geometry">
            <mxPoint x="480" y="528" as="targetPoint" />
            <Array as="points" />
            <mxPoint x="525" y="528" as="sourcePoint" />
          </mxGeometry>
        </mxCell>
        <mxCell id="_Sj6H3lR2v7R7_RWuAPX-180" value="true" style="edgeLabel;html=1;align=center;verticalAlign=middle;resizable=0;points=[];" parent="_Sj6H3lR2v7R7_RWuAPX-179" vertex="1" connectable="0">
          <mxGeometry x="0.2669" relative="1" as="geometry">
            <mxPoint x="10" as="offset" />
          </mxGeometry>
        </mxCell>
        <mxCell id="_Sj6H3lR2v7R7_RWuAPX-181" value="&lt;font style=&quot;font-size: 6px;&quot;&gt;&lt;b&gt;attackEnemy&lt;/b&gt;&lt;/font&gt;" style="rounded=0;whiteSpace=wrap;html=1;align=center;" parent="3" vertex="1">
          <mxGeometry x="400" y="518" width="50" height="20" as="geometry" />
        </mxCell>
        <mxCell id="_Sj6H3lR2v7R7_RWuAPX-190" value="&#xa;ladder is&#xa;up&#xa;" style="rhombus;fontSize=9;" parent="3" vertex="1">
          <mxGeometry x="385" y="950" width="80" height="40" as="geometry" />
        </mxCell>
        <mxCell id="_Sj6H3lR2v7R7_RWuAPX-192" value="step towards ladder" style="rounded=1;fontSize=11;" parent="3" vertex="1">
          <mxGeometry x="999" y="900" width="110" height="50" as="geometry" />
        </mxCell>
        <mxCell id="_Sj6H3lR2v7R7_RWuAPX-193" value="" style="edgeStyle=elbowEdgeStyle;elbow=horizontal;align=left;verticalAlign=bottom;endArrow=open;endSize=8;endFill=1;rounded=0;entryX=0.5;entryY=1;entryDx=0;entryDy=0;exitX=0.5;exitY=1;exitDx=0;exitDy=0;" parent="3" source="_Sj6H3lR2v7R7_RWuAPX-190" target="_Sj6H3lR2v7R7_RWuAPX-192" edge="1">
          <mxGeometry x="-1" relative="1" as="geometry">
            <mxPoint x="424.5" y="1164" as="targetPoint" />
            <Array as="points">
              <mxPoint x="630" y="1030" />
            </Array>
            <mxPoint x="425" y="1060" as="sourcePoint" />
          </mxGeometry>
        </mxCell>
        <mxCell id="_Sj6H3lR2v7R7_RWuAPX-194" value="true" style="edgeLabel;html=1;align=center;verticalAlign=middle;resizable=0;points=[];" parent="_Sj6H3lR2v7R7_RWuAPX-193" vertex="1" connectable="0">
          <mxGeometry x="0.2669" relative="1" as="geometry">
            <mxPoint x="-17" as="offset" />
          </mxGeometry>
        </mxCell>
        <mxCell id="_Sj6H3lR2v7R7_RWuAPX-198" value="step towards GB_e" style="rounded=1;fontSize=11;" parent="3" vertex="1">
          <mxGeometry x="745" y="900" width="110" height="50" as="geometry" />
        </mxCell>
        <mxCell id="_Sj6H3lR2v7R7_RWuAPX-199" value="" style="edgeStyle=elbowEdgeStyle;elbow=horizontal;align=left;verticalAlign=bottom;endArrow=open;endSize=8;endFill=1;rounded=0;entryX=0.5;entryY=1;entryDx=0;entryDy=0;exitX=1;exitY=0.5;exitDx=0;exitDy=0;" parent="3" source="_Sj6H3lR2v7R7_RWuAPX-190" target="_Sj6H3lR2v7R7_RWuAPX-198" edge="1">
          <mxGeometry x="-1" relative="1" as="geometry">
            <mxPoint x="895" y="950" as="targetPoint" />
            <Array as="points">
              <mxPoint x="800" y="970" />
            </Array>
            <mxPoint x="435" y="1000" as="sourcePoint" />
          </mxGeometry>
        </mxCell>
        <mxCell id="_Sj6H3lR2v7R7_RWuAPX-200" value="false" style="edgeLabel;html=1;align=center;verticalAlign=middle;resizable=0;points=[];" parent="_Sj6H3lR2v7R7_RWuAPX-199" vertex="1" connectable="0">
          <mxGeometry x="0.2669" relative="1" as="geometry">
            <mxPoint x="-17" as="offset" />
          </mxGeometry>
        </mxCell>
        <mxCell id="_Sj6H3lR2v7R7_RWuAPX-201" value="&#xa;ladder is&#xa;up&#xa;" style="rhombus;fontSize=9;" parent="3" vertex="1">
          <mxGeometry x="760" y="639" width="80" height="40" as="geometry" />
        </mxCell>
        <mxCell id="_Sj6H3lR2v7R7_RWuAPX-209" value="princess &#xa;rescued" style="rhombus;fontSize=9;" parent="3" vertex="1">
          <mxGeometry x="760" y="735" width="80" height="40" as="geometry" />
        </mxCell>
        <mxCell id="_Sj6H3lR2v7R7_RWuAPX-210" value="" style="edgeStyle=elbowEdgeStyle;elbow=horizontal;align=left;verticalAlign=bottom;endArrow=open;endSize=8;endFill=1;rounded=0;exitX=0;exitY=0.5;exitDx=0;exitDy=0;entryX=1;entryY=0.5;entryDx=0;entryDy=0;" parent="3" source="_Sj6H3lR2v7R7_RWuAPX-209" target="_Sj6H3lR2v7R7_RWuAPX-212" edge="1">
          <mxGeometry x="-1" relative="1" as="geometry">
            <mxPoint x="719" y="754.43" as="targetPoint" />
            <Array as="points" />
            <mxPoint x="759" y="754.43" as="sourcePoint" />
          </mxGeometry>
        </mxCell>
        <mxCell id="_Sj6H3lR2v7R7_RWuAPX-211" value="true" style="edgeLabel;html=1;align=center;verticalAlign=middle;resizable=0;points=[];" parent="_Sj6H3lR2v7R7_RWuAPX-210" vertex="1" connectable="0">
          <mxGeometry x="0.2669" relative="1" as="geometry">
            <mxPoint x="10" as="offset" />
          </mxGeometry>
        </mxCell>
        <mxCell id="_Sj6H3lR2v7R7_RWuAPX-212" value="&lt;font style=&quot;font-size: 6px;&quot;&gt;&lt;b&gt;protectPrincess&lt;/b&gt;&lt;/font&gt;" style="rounded=0;whiteSpace=wrap;html=1;align=center;" parent="3" vertex="1">
          <mxGeometry x="670" y="745" width="50" height="20" as="geometry" />
        </mxCell>
        <mxCell id="_Sj6H3lR2v7R7_RWuAPX-213" value="" style="edgeStyle=elbowEdgeStyle;elbow=horizontal;entryX=0.5;entryY=1;endArrow=open;endFill=1;rounded=0;entryDx=0;entryDy=0;exitX=0.5;exitY=0;exitDx=0;exitDy=0;" parent="3" source="_Sj6H3lR2v7R7_RWuAPX-198" target="_Sj6H3lR2v7R7_RWuAPX-270" edge="1">
          <mxGeometry width="100" height="100" relative="1" as="geometry">
            <mxPoint x="800" y="835" as="sourcePoint" />
            <mxPoint x="800" y="785" as="targetPoint" />
            <Array as="points">
              <mxPoint x="800" y="880" />
            </Array>
          </mxGeometry>
        </mxCell>
        <mxCell id="_Sj6H3lR2v7R7_RWuAPX-214" value="" style="edgeStyle=elbowEdgeStyle;elbow=horizontal;align=left;verticalAlign=bottom;endArrow=open;endSize=8;endFill=1;rounded=0;exitX=0.5;exitY=0;exitDx=0;exitDy=0;entryX=0.5;entryY=1;entryDx=0;entryDy=0;" parent="3" source="_Sj6H3lR2v7R7_RWuAPX-209" target="_Sj6H3lR2v7R7_RWuAPX-201" edge="1">
          <mxGeometry x="-1" relative="1" as="geometry">
            <mxPoint x="605" y="850" as="targetPoint" />
            <Array as="points" />
            <mxPoint x="605" y="764" as="sourcePoint" />
          </mxGeometry>
        </mxCell>
        <mxCell id="_Sj6H3lR2v7R7_RWuAPX-215" value="false" style="edgeLabel;html=1;align=center;verticalAlign=middle;resizable=0;points=[];" parent="_Sj6H3lR2v7R7_RWuAPX-214" vertex="1" connectable="0">
          <mxGeometry x="0.2669" relative="1" as="geometry">
            <mxPoint x="-17" as="offset" />
          </mxGeometry>
        </mxCell>
        <mxCell id="_Sj6H3lR2v7R7_RWuAPX-216" value="" style="edgeStyle=elbowEdgeStyle;elbow=horizontal;align=left;verticalAlign=bottom;endArrow=open;endSize=8;endFill=1;rounded=0;exitX=1;exitY=0.5;exitDx=0;exitDy=0;entryX=0;entryY=0.5;entryDx=0;entryDy=0;" parent="3" source="_Sj6H3lR2v7R7_RWuAPX-201" target="_Sj6H3lR2v7R7_RWuAPX-192" edge="1">
          <mxGeometry x="-1" relative="1" as="geometry">
            <mxPoint x="999" y="860" as="targetPoint" />
            <Array as="points">
              <mxPoint x="960" y="765" />
            </Array>
            <mxPoint x="895" y="641" as="sourcePoint" />
          </mxGeometry>
        </mxCell>
        <mxCell id="_Sj6H3lR2v7R7_RWuAPX-217" value="true" style="edgeLabel;html=1;align=center;verticalAlign=middle;resizable=0;points=[];" parent="_Sj6H3lR2v7R7_RWuAPX-216" vertex="1" connectable="0">
          <mxGeometry x="0.2669" relative="1" as="geometry">
            <mxPoint x="8" y="78" as="offset" />
          </mxGeometry>
        </mxCell>
        <mxCell id="_Sj6H3lR2v7R7_RWuAPX-218" value="GB_e&#xa;reached" style="rhombus;fontSize=9;" parent="3" vertex="1">
          <mxGeometry x="760" y="535" width="80" height="40" as="geometry" />
        </mxCell>
        <mxCell id="_Sj6H3lR2v7R7_RWuAPX-226" value="ladder&#xa;reached" style="rhombus;fontSize=9;" parent="3" vertex="1">
          <mxGeometry x="1014" y="473" width="80" height="40" as="geometry" />
        </mxCell>
        <mxCell id="_Sj6H3lR2v7R7_RWuAPX-228" value="" style="edgeStyle=elbowEdgeStyle;elbow=horizontal;align=left;verticalAlign=bottom;endArrow=open;endSize=8;endFill=1;rounded=0;entryX=0.5;entryY=1;entryDx=0;entryDy=0;exitX=0.5;exitY=0;exitDx=0;exitDy=0;" parent="3" source="_Sj6H3lR2v7R7_RWuAPX-201" target="_Sj6H3lR2v7R7_RWuAPX-218" edge="1">
          <mxGeometry x="-1" relative="1" as="geometry">
            <mxPoint x="811" y="752" as="targetPoint" />
            <Array as="points" />
            <mxPoint x="770" y="680" as="sourcePoint" />
          </mxGeometry>
        </mxCell>
        <mxCell id="_Sj6H3lR2v7R7_RWuAPX-229" value="false" style="edgeLabel;html=1;align=center;verticalAlign=middle;resizable=0;points=[];" parent="_Sj6H3lR2v7R7_RWuAPX-228" vertex="1" connectable="0">
          <mxGeometry x="0.2669" relative="1" as="geometry">
            <mxPoint x="-17" as="offset" />
          </mxGeometry>
        </mxCell>
        <mxCell id="_Sj6H3lR2v7R7_RWuAPX-236" value="princess &#xa;rescued" style="rhombus;fontSize=9;" parent="3" vertex="1">
          <mxGeometry x="1014" y="735" width="80" height="40" as="geometry" />
        </mxCell>
        <mxCell id="_Sj6H3lR2v7R7_RWuAPX-240" value="" style="edgeStyle=elbowEdgeStyle;elbow=horizontal;align=left;verticalAlign=bottom;endArrow=open;endSize=8;endFill=1;rounded=0;exitX=0.5;exitY=0;exitDx=0;exitDy=0;entryX=0.5;entryY=1;entryDx=0;entryDy=0;" parent="3" source="_Sj6H3lR2v7R7_RWuAPX-236" target="_Sj6H3lR2v7R7_RWuAPX-244" edge="1">
          <mxGeometry x="-1" relative="1" as="geometry">
            <mxPoint x="951" y="742" as="targetPoint" />
            <Array as="points" />
            <mxPoint x="755" y="764" as="sourcePoint" />
          </mxGeometry>
        </mxCell>
        <mxCell id="_Sj6H3lR2v7R7_RWuAPX-241" value="false" style="edgeLabel;html=1;align=center;verticalAlign=middle;resizable=0;points=[];" parent="_Sj6H3lR2v7R7_RWuAPX-240" vertex="1" connectable="0">
          <mxGeometry x="0.2669" relative="1" as="geometry">
            <mxPoint x="-17" as="offset" />
          </mxGeometry>
        </mxCell>
        <mxCell id="_Sj6H3lR2v7R7_RWuAPX-242" value="" style="edgeStyle=elbowEdgeStyle;elbow=horizontal;align=left;verticalAlign=bottom;endArrow=open;endSize=8;endFill=1;rounded=0;entryX=0.5;entryY=1;entryDx=0;entryDy=0;exitX=0.5;exitY=0;exitDx=0;exitDy=0;" parent="3" source="_Sj6H3lR2v7R7_RWuAPX-244" target="_Sj6H3lR2v7R7_RWuAPX-226" edge="1">
          <mxGeometry x="-1" relative="1" as="geometry">
            <mxPoint x="949.5799999999999" y="640" as="targetPoint" />
            <Array as="points" />
            <mxPoint x="949.5799999999999" y="704" as="sourcePoint" />
          </mxGeometry>
        </mxCell>
        <mxCell id="_Sj6H3lR2v7R7_RWuAPX-243" value="false" style="edgeLabel;html=1;align=center;verticalAlign=middle;resizable=0;points=[];" parent="_Sj6H3lR2v7R7_RWuAPX-242" vertex="1" connectable="0">
          <mxGeometry x="0.2669" relative="1" as="geometry">
            <mxPoint x="-17" as="offset" />
          </mxGeometry>
        </mxCell>
        <mxCell id="_Sj6H3lR2v7R7_RWuAPX-244" value="&#xa;ladder is&#xa;up&#xa;" style="rhombus;fontSize=9;" parent="3" vertex="1">
          <mxGeometry x="1014" y="577" width="80" height="40" as="geometry" />
        </mxCell>
        <mxCell id="_Sj6H3lR2v7R7_RWuAPX-247" value="" style="edgeStyle=elbowEdgeStyle;elbow=horizontal;align=left;verticalAlign=bottom;endArrow=none;endSize=6;endFill=0;rounded=0;exitX=0;exitY=0.5;exitDx=0;exitDy=0;entryX=1;entryY=0.5;entryDx=0;entryDy=0;startArrow=open;startFill=0;startSize=8;" parent="3" source="_Sj6H3lR2v7R7_RWuAPX-249" target="_Sj6H3lR2v7R7_RWuAPX-236" edge="1">
          <mxGeometry x="-1" relative="1" as="geometry">
            <mxPoint x="1094" y="754.83" as="targetPoint" />
            <Array as="points" />
            <mxPoint x="1134" y="754.83" as="sourcePoint" />
          </mxGeometry>
        </mxCell>
        <mxCell id="_Sj6H3lR2v7R7_RWuAPX-248" value="true" style="edgeLabel;html=1;align=center;verticalAlign=middle;resizable=0;points=[];" parent="_Sj6H3lR2v7R7_RWuAPX-247" vertex="1" connectable="0">
          <mxGeometry x="0.2669" relative="1" as="geometry">
            <mxPoint x="-1" as="offset" />
          </mxGeometry>
        </mxCell>
        <mxCell id="_Sj6H3lR2v7R7_RWuAPX-249" value="&lt;font style=&quot;font-size: 6px;&quot;&gt;&lt;b&gt;protectPrincess&lt;/b&gt;&lt;/font&gt;" style="rounded=0;whiteSpace=wrap;html=1;align=center;" parent="3" vertex="1">
          <mxGeometry x="1135" y="745" width="50" height="20" as="geometry" />
        </mxCell>
        <mxCell id="_Sj6H3lR2v7R7_RWuAPX-251" value="" style="edgeStyle=elbowEdgeStyle;elbow=horizontal;align=left;verticalAlign=bottom;endArrow=open;endSize=8;endFill=1;rounded=0;entryX=1;entryY=0.5;entryDx=0;entryDy=0;" parent="3" source="_Sj6H3lR2v7R7_RWuAPX-244" target="_Sj6H3lR2v7R7_RWuAPX-198" edge="1">
          <mxGeometry x="-1" relative="1" as="geometry">
            <mxPoint x="855" y="860" as="targetPoint" />
            <Array as="points">
              <mxPoint x="920" y="725" />
            </Array>
            <mxPoint x="850" y="669" as="sourcePoint" />
          </mxGeometry>
        </mxCell>
        <mxCell id="_Sj6H3lR2v7R7_RWuAPX-252" value="false" style="edgeLabel;html=1;align=center;verticalAlign=middle;resizable=0;points=[];" parent="_Sj6H3lR2v7R7_RWuAPX-251" vertex="1" connectable="0">
          <mxGeometry x="0.2669" relative="1" as="geometry">
            <mxPoint x="-10" y="75" as="offset" />
          </mxGeometry>
        </mxCell>
        <mxCell id="_Sj6H3lR2v7R7_RWuAPX-254" value="&#xa;gate is&#xa;broken&#xa;" style="rhombus;fontSize=9;" parent="3" vertex="1">
          <mxGeometry x="760" y="432" width="80" height="40" as="geometry" />
        </mxCell>
        <mxCell id="_Sj6H3lR2v7R7_RWuAPX-255" value="" style="edgeStyle=elbowEdgeStyle;elbow=horizontal;align=left;verticalAlign=bottom;endArrow=open;endSize=8;endFill=1;rounded=0;exitX=0;exitY=0.5;exitDx=0;exitDy=0;entryX=0;entryY=0.5;entryDx=0;entryDy=0;" parent="3" source="_Sj6H3lR2v7R7_RWuAPX-218" target="_Sj6H3lR2v7R7_RWuAPX-198" edge="1">
          <mxGeometry x="-1" relative="1" as="geometry">
            <mxPoint x="745" y="860" as="targetPoint" />
            <Array as="points">
              <mxPoint x="650" y="685" />
            </Array>
            <mxPoint x="810" y="649" as="sourcePoint" />
          </mxGeometry>
        </mxCell>
        <mxCell id="_Sj6H3lR2v7R7_RWuAPX-256" value="false" style="edgeLabel;html=1;align=center;verticalAlign=middle;resizable=0;points=[];" parent="_Sj6H3lR2v7R7_RWuAPX-255" vertex="1" connectable="0">
          <mxGeometry x="0.2669" relative="1" as="geometry">
            <mxPoint x="-17" as="offset" />
          </mxGeometry>
        </mxCell>
        <mxCell id="_Sj6H3lR2v7R7_RWuAPX-257" value="" style="edgeStyle=elbowEdgeStyle;elbow=horizontal;align=left;verticalAlign=bottom;endArrow=open;endSize=8;endFill=1;rounded=0;exitX=1;exitY=0.5;exitDx=0;exitDy=0;entryX=1;entryY=0.5;entryDx=0;entryDy=0;" parent="3" source="_Sj6H3lR2v7R7_RWuAPX-226" target="_Sj6H3lR2v7R7_RWuAPX-192" edge="1">
          <mxGeometry x="-1" relative="1" as="geometry">
            <mxPoint x="1109" y="860" as="targetPoint" />
            <Array as="points">
              <mxPoint x="1230" y="725" />
            </Array>
            <mxPoint x="770" y="565" as="sourcePoint" />
          </mxGeometry>
        </mxCell>
        <mxCell id="_Sj6H3lR2v7R7_RWuAPX-258" value="false" style="edgeLabel;html=1;align=center;verticalAlign=middle;resizable=0;points=[];" parent="_Sj6H3lR2v7R7_RWuAPX-257" vertex="1" connectable="0">
          <mxGeometry x="0.2669" relative="1" as="geometry">
            <mxPoint x="-17" as="offset" />
          </mxGeometry>
        </mxCell>
        <mxCell id="_Sj6H3lR2v7R7_RWuAPX-259" value="" style="edgeStyle=elbowEdgeStyle;elbow=horizontal;align=left;verticalAlign=bottom;endArrow=open;endSize=8;endFill=1;rounded=0;entryX=0.5;entryY=1;entryDx=0;entryDy=0;exitX=0.5;exitY=0;exitDx=0;exitDy=0;" parent="3" source="_Sj6H3lR2v7R7_RWuAPX-218" target="_Sj6H3lR2v7R7_RWuAPX-254" edge="1">
          <mxGeometry x="-1" relative="1" as="geometry">
            <mxPoint x="880" y="407" as="targetPoint" />
            <Array as="points" />
            <mxPoint x="799.72" y="535" as="sourcePoint" />
          </mxGeometry>
        </mxCell>
        <mxCell id="_Sj6H3lR2v7R7_RWuAPX-260" value="true" style="edgeLabel;html=1;align=center;verticalAlign=middle;resizable=0;points=[];" parent="_Sj6H3lR2v7R7_RWuAPX-259" vertex="1" connectable="0">
          <mxGeometry x="0.2669" relative="1" as="geometry">
            <mxPoint x="-17" as="offset" />
          </mxGeometry>
        </mxCell>
        <mxCell id="_Sj6H3lR2v7R7_RWuAPX-262" value="attack door" style="rounded=1;" parent="3" vertex="1">
          <mxGeometry x="620" y="362" width="110" height="50" as="geometry" />
        </mxCell>
        <mxCell id="_Sj6H3lR2v7R7_RWuAPX-263" value="" style="edgeStyle=elbowEdgeStyle;elbow=horizontal;align=left;verticalAlign=bottom;endArrow=open;endSize=8;endFill=1;rounded=0;entryX=0.5;entryY=1;entryDx=0;entryDy=0;exitX=0.029;exitY=0.533;exitDx=0;exitDy=0;exitPerimeter=0;" parent="3" source="_Sj6H3lR2v7R7_RWuAPX-254" target="_Sj6H3lR2v7R7_RWuAPX-262" edge="1">
          <mxGeometry x="-1" relative="1" as="geometry">
            <mxPoint x="758.03" y="391" as="targetPoint" />
            <Array as="points">
              <mxPoint x="675" y="430" />
            </Array>
            <mxPoint x="840" y="387" as="sourcePoint" />
          </mxGeometry>
        </mxCell>
        <mxCell id="_Sj6H3lR2v7R7_RWuAPX-264" value="false" style="edgeLabel;html=1;align=center;verticalAlign=middle;resizable=0;points=[];" parent="_Sj6H3lR2v7R7_RWuAPX-263" vertex="1" connectable="0">
          <mxGeometry x="0.2669" relative="1" as="geometry">
            <mxPoint x="-17" as="offset" />
          </mxGeometry>
        </mxCell>
        <mxCell id="_Sj6H3lR2v7R7_RWuAPX-43" value="" style="ellipse;shape=endState;fillColor=#000000;strokeColor=#000000;" parent="3" vertex="1">
          <mxGeometry x="690" y="101" width="30" height="30" as="geometry" />
        </mxCell>
        <mxCell id="_Sj6H3lR2v7R7_RWuAPX-41" value="step towards &#xa;princess" style="rounded=1;" parent="3" vertex="1">
          <mxGeometry x="999" y="362" width="110" height="50" as="geometry" />
        </mxCell>
        <mxCell id="_Sj6H3lR2v7R7_RWuAPX-265" value="" style="edgeStyle=elbowEdgeStyle;elbow=horizontal;align=left;verticalAlign=bottom;endArrow=open;endSize=8;endFill=1;rounded=0;entryX=0;entryY=0.5;entryDx=0;entryDy=0;exitX=1;exitY=0.5;exitDx=0;exitDy=0;" parent="3" source="_Sj6H3lR2v7R7_RWuAPX-254" target="_Sj6H3lR2v7R7_RWuAPX-41" edge="1">
          <mxGeometry x="-1" relative="1" as="geometry">
            <mxPoint x="920" y="386.58000000000004" as="targetPoint" />
            <Array as="points">
              <mxPoint x="910" y="410" />
            </Array>
            <mxPoint x="920" y="387" as="sourcePoint" />
          </mxGeometry>
        </mxCell>
        <mxCell id="_Sj6H3lR2v7R7_RWuAPX-266" value="true" style="edgeLabel;html=1;align=center;verticalAlign=middle;resizable=0;points=[];" parent="_Sj6H3lR2v7R7_RWuAPX-265" vertex="1" connectable="0">
          <mxGeometry x="0.2669" relative="1" as="geometry">
            <mxPoint x="-17" as="offset" />
          </mxGeometry>
        </mxCell>
        <mxCell id="_Sj6H3lR2v7R7_RWuAPX-267" value="" style="edgeStyle=elbowEdgeStyle;elbow=horizontal;align=left;verticalAlign=bottom;endArrow=open;endSize=8;endFill=1;rounded=0;entryX=0.5;entryY=1;entryDx=0;entryDy=0;exitX=0.5;exitY=0;exitDx=0;exitDy=0;" parent="3" source="_Sj6H3lR2v7R7_RWuAPX-226" target="_Sj6H3lR2v7R7_RWuAPX-41" edge="1">
          <mxGeometry x="-1" relative="1" as="geometry">
            <mxPoint x="1059" y="462.79999999999995" as="targetPoint" />
            <Array as="points">
              <mxPoint x="1054" y="445" />
            </Array>
            <mxPoint x="980" y="462.79999999999995" as="sourcePoint" />
          </mxGeometry>
        </mxCell>
        <mxCell id="_Sj6H3lR2v7R7_RWuAPX-268" value="true" style="edgeLabel;html=1;align=center;verticalAlign=middle;resizable=0;points=[];" parent="_Sj6H3lR2v7R7_RWuAPX-267" vertex="1" connectable="0">
          <mxGeometry x="0.2669" relative="1" as="geometry">
            <mxPoint x="-17" as="offset" />
          </mxGeometry>
        </mxCell>
        <mxCell id="_Sj6H3lR2v7R7_RWuAPX-269" value="" style="edgeStyle=elbowEdgeStyle;elbow=horizontal;entryX=0.5;entryY=0;endArrow=open;endFill=1;rounded=0;entryDx=0;entryDy=0;exitX=1;exitY=0.5;exitDx=0;exitDy=0;" parent="3" source="_Sj6H3lR2v7R7_RWuAPX-262" target="_Sj6H3lR2v7R7_RWuAPX-254" edge="1">
          <mxGeometry width="100" height="100" relative="1" as="geometry">
            <mxPoint x="430" y="202" as="sourcePoint" />
            <mxPoint x="880" y="367" as="targetPoint" />
            <Array as="points">
              <mxPoint x="800" y="410" />
            </Array>
          </mxGeometry>
        </mxCell>
        <mxCell id="_Sj6H3lR2v7R7_RWuAPX-270" value="underattack" style="rhombus;fontSize=9;" parent="3" vertex="1">
          <mxGeometry x="760" y="830" width="80" height="40" as="geometry" />
        </mxCell>
        <mxCell id="_Sj6H3lR2v7R7_RWuAPX-271" value="underattack" style="rhombus;fontSize=9;" parent="3" vertex="1">
          <mxGeometry x="1014" y="830" width="80" height="40" as="geometry" />
        </mxCell>
        <mxCell id="_Sj6H3lR2v7R7_RWuAPX-273" value="" style="edgeStyle=elbowEdgeStyle;elbow=horizontal;entryX=0.5;entryY=1;endArrow=open;endFill=1;rounded=0;entryDx=0;entryDy=0;exitX=0.5;exitY=0;exitDx=0;exitDy=0;" parent="3" source="_Sj6H3lR2v7R7_RWuAPX-192" target="_Sj6H3lR2v7R7_RWuAPX-271" edge="1">
          <mxGeometry width="100" height="100" relative="1" as="geometry">
            <mxPoint x="1053.71" y="900" as="sourcePoint" />
            <mxPoint x="1053.71" y="870" as="targetPoint" />
            <Array as="points">
              <mxPoint x="1053.71" y="880" />
            </Array>
          </mxGeometry>
        </mxCell>
        <mxCell id="_Sj6H3lR2v7R7_RWuAPX-274" value="" style="edgeStyle=elbowEdgeStyle;elbow=horizontal;align=left;verticalAlign=bottom;endArrow=none;endSize=6;endFill=0;rounded=0;exitX=0;exitY=0.5;exitDx=0;exitDy=0;startArrow=open;startFill=0;startSize=8;entryX=1;entryY=0.5;entryDx=0;entryDy=0;" parent="3" source="_Sj6H3lR2v7R7_RWuAPX-276" target="_Sj6H3lR2v7R7_RWuAPX-271" edge="1">
          <mxGeometry x="-1" relative="1" as="geometry">
            <mxPoint x="1090" y="850" as="targetPoint" />
            <Array as="points" />
            <mxPoint x="1134" y="849.83" as="sourcePoint" />
          </mxGeometry>
        </mxCell>
        <mxCell id="_Sj6H3lR2v7R7_RWuAPX-275" value="true" style="edgeLabel;html=1;align=center;verticalAlign=middle;resizable=0;points=[];" parent="_Sj6H3lR2v7R7_RWuAPX-274" vertex="1" connectable="0">
          <mxGeometry x="0.2669" relative="1" as="geometry">
            <mxPoint x="-1" as="offset" />
          </mxGeometry>
        </mxCell>
        <mxCell id="_Sj6H3lR2v7R7_RWuAPX-276" value="&lt;font style=&quot;font-size: 6px;&quot;&gt;&lt;b&gt;attackEnemy&lt;/b&gt;&lt;/font&gt;" style="rounded=0;whiteSpace=wrap;html=1;align=center;" parent="3" vertex="1">
          <mxGeometry x="1135" y="841" width="50" height="20" as="geometry" />
        </mxCell>
        <mxCell id="_Sj6H3lR2v7R7_RWuAPX-277" value="" style="edgeStyle=elbowEdgeStyle;elbow=horizontal;align=left;verticalAlign=bottom;endArrow=open;endSize=8;endFill=1;rounded=0;exitX=0;exitY=0.5;exitDx=0;exitDy=0;entryX=1;entryY=0.5;entryDx=0;entryDy=0;" parent="3" source="_Sj6H3lR2v7R7_RWuAPX-270" target="_Sj6H3lR2v7R7_RWuAPX-279" edge="1">
          <mxGeometry x="-1" relative="1" as="geometry">
            <mxPoint x="718" y="849.43" as="targetPoint" />
            <Array as="points" />
            <mxPoint x="759" y="850" as="sourcePoint" />
          </mxGeometry>
        </mxCell>
        <mxCell id="_Sj6H3lR2v7R7_RWuAPX-278" value="true" style="edgeLabel;html=1;align=center;verticalAlign=middle;resizable=0;points=[];" parent="_Sj6H3lR2v7R7_RWuAPX-277" vertex="1" connectable="0">
          <mxGeometry x="0.2669" relative="1" as="geometry">
            <mxPoint x="10" as="offset" />
          </mxGeometry>
        </mxCell>
        <mxCell id="_Sj6H3lR2v7R7_RWuAPX-279" value="&lt;font style=&quot;font-size: 6px;&quot;&gt;&lt;b&gt;attackEnemy&lt;/b&gt;&lt;/font&gt;" style="rounded=0;whiteSpace=wrap;html=1;align=center;" parent="3" vertex="1">
          <mxGeometry x="669" y="840" width="50" height="20" as="geometry" />
        </mxCell>
        <mxCell id="_Sj6H3lR2v7R7_RWuAPX-280" value="" style="edgeStyle=elbowEdgeStyle;elbow=horizontal;align=left;verticalAlign=bottom;endArrow=open;endSize=8;endFill=1;rounded=0;exitX=0.5;exitY=0;exitDx=0;exitDy=0;entryX=0.5;entryY=1;entryDx=0;entryDy=0;" parent="3" source="_Sj6H3lR2v7R7_RWuAPX-270" target="_Sj6H3lR2v7R7_RWuAPX-209" edge="1">
          <mxGeometry x="-1" relative="1" as="geometry">
            <mxPoint x="799.9000000000001" y="775" as="targetPoint" />
            <Array as="points" />
            <mxPoint x="799.9000000000001" y="831" as="sourcePoint" />
          </mxGeometry>
        </mxCell>
        <mxCell id="_Sj6H3lR2v7R7_RWuAPX-281" value="false" style="edgeLabel;html=1;align=center;verticalAlign=middle;resizable=0;points=[];" parent="_Sj6H3lR2v7R7_RWuAPX-280" vertex="1" connectable="0">
          <mxGeometry x="0.2669" relative="1" as="geometry">
            <mxPoint x="-17" as="offset" />
          </mxGeometry>
        </mxCell>
        <mxCell id="_Sj6H3lR2v7R7_RWuAPX-282" value="" style="edgeStyle=elbowEdgeStyle;elbow=horizontal;align=left;verticalAlign=bottom;endArrow=open;endSize=8;endFill=1;rounded=0;exitX=0.5;exitY=0;exitDx=0;exitDy=0;entryX=0.5;entryY=1;entryDx=0;entryDy=0;" parent="3" source="_Sj6H3lR2v7R7_RWuAPX-271" target="_Sj6H3lR2v7R7_RWuAPX-236" edge="1">
          <mxGeometry x="-1" relative="1" as="geometry">
            <mxPoint x="1053.9" y="775" as="targetPoint" />
            <Array as="points" />
            <mxPoint x="1053.9" y="830" as="sourcePoint" />
          </mxGeometry>
        </mxCell>
        <mxCell id="_Sj6H3lR2v7R7_RWuAPX-283" value="false" style="edgeLabel;html=1;align=center;verticalAlign=middle;resizable=0;points=[];" parent="_Sj6H3lR2v7R7_RWuAPX-282" vertex="1" connectable="0">
          <mxGeometry x="0.2669" relative="1" as="geometry">
            <mxPoint x="-17" as="offset" />
          </mxGeometry>
        </mxCell>
        <mxCell id="_Sj6H3lR2v7R7_RWuAPX-298" value="princess &#xa;rescued" style="rhombus;fontSize=9;" parent="3" vertex="1">
          <mxGeometry x="1014" y="197" width="80" height="40" as="geometry" />
        </mxCell>
        <mxCell id="_Sj6H3lR2v7R7_RWuAPX-299" value="" style="edgeStyle=elbowEdgeStyle;elbow=horizontal;align=left;verticalAlign=bottom;endArrow=none;endSize=6;endFill=0;rounded=0;exitX=0;exitY=0.5;exitDx=0;exitDy=0;entryX=1;entryY=0.5;entryDx=0;entryDy=0;startArrow=open;startFill=0;startSize=8;" parent="3" source="_Sj6H3lR2v7R7_RWuAPX-301" target="_Sj6H3lR2v7R7_RWuAPX-298" edge="1">
          <mxGeometry x="-1" relative="1" as="geometry">
            <mxPoint x="1094" y="216.83000000000004" as="targetPoint" />
            <Array as="points" />
            <mxPoint x="1134" y="216.83000000000004" as="sourcePoint" />
          </mxGeometry>
        </mxCell>
        <mxCell id="_Sj6H3lR2v7R7_RWuAPX-300" value="true" style="edgeLabel;html=1;align=center;verticalAlign=middle;resizable=0;points=[];" parent="_Sj6H3lR2v7R7_RWuAPX-299" vertex="1" connectable="0">
          <mxGeometry x="0.2669" relative="1" as="geometry">
            <mxPoint x="-1" as="offset" />
          </mxGeometry>
        </mxCell>
        <mxCell id="_Sj6H3lR2v7R7_RWuAPX-301" value="&lt;font style=&quot;font-size: 6px;&quot;&gt;&lt;b&gt;protectPrincess&lt;/b&gt;&lt;/font&gt;" style="rounded=0;whiteSpace=wrap;html=1;align=center;" parent="3" vertex="1">
          <mxGeometry x="1135" y="207" width="50" height="20" as="geometry" />
        </mxCell>
        <mxCell id="_Sj6H3lR2v7R7_RWuAPX-302" value="underattack" style="rhombus;fontSize=9;" parent="3" vertex="1">
          <mxGeometry x="1014" y="292" width="80" height="40" as="geometry" />
        </mxCell>
        <mxCell id="_Sj6H3lR2v7R7_RWuAPX-303" value="" style="edgeStyle=elbowEdgeStyle;elbow=horizontal;entryX=0.5;entryY=1;endArrow=open;endFill=1;rounded=0;entryDx=0;entryDy=0;exitX=0.5;exitY=0;exitDx=0;exitDy=0;" parent="3" source="_Sj6H3lR2v7R7_RWuAPX-41" target="_Sj6H3lR2v7R7_RWuAPX-302" edge="1">
          <mxGeometry width="100" height="100" relative="1" as="geometry">
            <mxPoint x="1054" y="362" as="sourcePoint" />
            <mxPoint x="1053.71" y="332" as="targetPoint" />
            <Array as="points">
              <mxPoint x="1053.71" y="342" />
            </Array>
          </mxGeometry>
        </mxCell>
        <mxCell id="_Sj6H3lR2v7R7_RWuAPX-304" value="" style="edgeStyle=elbowEdgeStyle;elbow=horizontal;align=left;verticalAlign=bottom;endArrow=none;endSize=6;endFill=0;rounded=0;exitX=0;exitY=0.5;exitDx=0;exitDy=0;startArrow=open;startFill=0;startSize=8;entryX=1;entryY=0.5;entryDx=0;entryDy=0;" parent="3" source="_Sj6H3lR2v7R7_RWuAPX-306" target="_Sj6H3lR2v7R7_RWuAPX-302" edge="1">
          <mxGeometry x="-1" relative="1" as="geometry">
            <mxPoint x="1090" y="312" as="targetPoint" />
            <Array as="points" />
            <mxPoint x="1134" y="311.83000000000004" as="sourcePoint" />
          </mxGeometry>
        </mxCell>
        <mxCell id="_Sj6H3lR2v7R7_RWuAPX-305" value="true" style="edgeLabel;html=1;align=center;verticalAlign=middle;resizable=0;points=[];" parent="_Sj6H3lR2v7R7_RWuAPX-304" vertex="1" connectable="0">
          <mxGeometry x="0.2669" relative="1" as="geometry">
            <mxPoint x="-1" as="offset" />
          </mxGeometry>
        </mxCell>
        <mxCell id="_Sj6H3lR2v7R7_RWuAPX-306" value="&lt;font style=&quot;font-size: 6px;&quot;&gt;&lt;b&gt;attackEnemy&lt;/b&gt;&lt;/font&gt;" style="rounded=0;whiteSpace=wrap;html=1;align=center;" parent="3" vertex="1">
          <mxGeometry x="1135" y="303" width="50" height="20" as="geometry" />
        </mxCell>
        <mxCell id="_Sj6H3lR2v7R7_RWuAPX-307" value="" style="edgeStyle=elbowEdgeStyle;elbow=horizontal;align=left;verticalAlign=bottom;endArrow=open;endSize=8;endFill=1;rounded=0;exitX=0.5;exitY=0;exitDx=0;exitDy=0;entryX=0.5;entryY=1;entryDx=0;entryDy=0;" parent="3" source="_Sj6H3lR2v7R7_RWuAPX-302" target="_Sj6H3lR2v7R7_RWuAPX-298" edge="1">
          <mxGeometry x="-1" relative="1" as="geometry">
            <mxPoint x="1053.9" y="237" as="targetPoint" />
            <Array as="points" />
            <mxPoint x="1053.9" y="292" as="sourcePoint" />
          </mxGeometry>
        </mxCell>
        <mxCell id="_Sj6H3lR2v7R7_RWuAPX-308" value="false" style="edgeLabel;html=1;align=center;verticalAlign=middle;resizable=0;points=[];" parent="_Sj6H3lR2v7R7_RWuAPX-307" vertex="1" connectable="0">
          <mxGeometry x="0.2669" relative="1" as="geometry">
            <mxPoint x="-17" as="offset" />
          </mxGeometry>
        </mxCell>
        <mxCell id="_Sj6H3lR2v7R7_RWuAPX-309" value="princess&#xa;reached" style="rhombus;fontSize=9;" parent="3" vertex="1">
          <mxGeometry x="1014" y="93" width="80" height="40" as="geometry" />
        </mxCell>
        <mxCell id="_Sj6H3lR2v7R7_RWuAPX-310" value="" style="edgeStyle=elbowEdgeStyle;elbow=horizontal;align=left;verticalAlign=bottom;endArrow=open;endSize=8;endFill=1;rounded=0;entryX=0.5;entryY=1;entryDx=0;entryDy=0;exitX=0.5;exitY=0;exitDx=0;exitDy=0;" parent="3" source="_Sj6H3lR2v7R7_RWuAPX-298" target="_Sj6H3lR2v7R7_RWuAPX-309" edge="1">
          <mxGeometry x="-1" relative="1" as="geometry">
            <mxPoint x="949.5799999999999" y="260" as="targetPoint" />
            <Array as="points" />
            <mxPoint x="1054" y="197" as="sourcePoint" />
          </mxGeometry>
        </mxCell>
        <mxCell id="_Sj6H3lR2v7R7_RWuAPX-311" value="false" style="edgeLabel;html=1;align=center;verticalAlign=middle;resizable=0;points=[];" parent="_Sj6H3lR2v7R7_RWuAPX-310" vertex="1" connectable="0">
          <mxGeometry x="0.2669" relative="1" as="geometry">
            <mxPoint x="-17" as="offset" />
          </mxGeometry>
        </mxCell>
        <mxCell id="_Sj6H3lR2v7R7_RWuAPX-313" value="" style="edgeStyle=elbowEdgeStyle;elbow=horizontal;align=left;verticalAlign=bottom;endArrow=open;endSize=8;endFill=1;rounded=0;entryX=1.001;entryY=0.423;entryDx=0;entryDy=0;exitX=0;exitY=0.5;exitDx=0;exitDy=0;entryPerimeter=0;" parent="3" source="_Sj6H3lR2v7R7_RWuAPX-309" target="_Sj6H3lR2v7R7_RWuAPX-317" edge="1">
          <mxGeometry x="-1" relative="1" as="geometry">
            <mxPoint x="1094" y="40" as="targetPoint" />
            <Array as="points">
              <mxPoint x="960" y="110" />
            </Array>
            <mxPoint x="1054" y="90" as="sourcePoint" />
          </mxGeometry>
        </mxCell>
        <mxCell id="_Sj6H3lR2v7R7_RWuAPX-314" value="true" style="edgeLabel;html=1;align=center;verticalAlign=middle;resizable=0;points=[];" parent="_Sj6H3lR2v7R7_RWuAPX-313" vertex="1" connectable="0">
          <mxGeometry x="0.2669" relative="1" as="geometry">
            <mxPoint x="-17" as="offset" />
          </mxGeometry>
        </mxCell>
        <mxCell id="_Sj6H3lR2v7R7_RWuAPX-315" value="" style="edgeStyle=elbowEdgeStyle;elbow=horizontal;align=left;verticalAlign=bottom;endArrow=open;endSize=8;endFill=1;rounded=0;exitX=1;exitY=0.5;exitDx=0;exitDy=0;entryX=1;entryY=0.5;entryDx=0;entryDy=0;" parent="3" source="_Sj6H3lR2v7R7_RWuAPX-309" target="_Sj6H3lR2v7R7_RWuAPX-41" edge="1">
          <mxGeometry x="-1" relative="1" as="geometry">
            <mxPoint x="1119" y="935" as="targetPoint" />
            <Array as="points">
              <mxPoint x="1240" y="735" />
            </Array>
            <mxPoint x="1104" y="503" as="sourcePoint" />
          </mxGeometry>
        </mxCell>
        <mxCell id="_Sj6H3lR2v7R7_RWuAPX-316" value="false" style="edgeLabel;html=1;align=center;verticalAlign=middle;resizable=0;points=[];" parent="_Sj6H3lR2v7R7_RWuAPX-315" vertex="1" connectable="0">
          <mxGeometry x="0.2669" relative="1" as="geometry">
            <mxPoint x="-17" as="offset" />
          </mxGeometry>
        </mxCell>
        <mxCell id="_Sj6H3lR2v7R7_RWuAPX-317" value="pick up &#xa;princess" style="rounded=1;" parent="3" vertex="1">
          <mxGeometry x="790" y="91" width="110" height="50" as="geometry" />
        </mxCell>
        <mxCell id="_Sj6H3lR2v7R7_RWuAPX-318" value="" style="edgeStyle=elbowEdgeStyle;elbow=horizontal;verticalAlign=bottom;endArrow=open;endSize=8;endFill=1;rounded=0;exitX=0;exitY=0.5;exitDx=0;exitDy=0;entryX=1;entryY=0.5;entryDx=0;entryDy=0;" parent="3" source="_Sj6H3lR2v7R7_RWuAPX-317" target="_Sj6H3lR2v7R7_RWuAPX-43" edge="1">
          <mxGeometry x="-280" y="-228" as="geometry">
            <mxPoint x="720.1399999999999" y="141" as="targetPoint" />
            <mxPoint x="720.1399999999999" y="101" as="sourcePoint" />
          </mxGeometry>
        </mxCell>
      </root>
    </mxGraphModel>
  </diagram>
</mxfile>
